inDegrees=yes
name=results_flex.mot
DataType=double
version=3
OpenSimVersion=4.3-2021-08-27-4bc7ad9
endheader
time	pelvis_tilt	pelvis_list	pelvis_rotation	pelvis_tx	pelvis_ty	pelvis_tz	hip_flexion_r	hip_adduction_r	hip_rotation_r	knee_angle_r	knee_angle_r_beta	ankle_angle_r	subtalar_angle_r	mtp_angle_r	hip_flexion_l	hip_adduction_l	hip_rotation_l	knee_angle_l	knee_angle_l_beta	ankle_angle_l	subtalar_angle_l	mtp_angle_l	lumbar_extension	lumbar_bending	lumbar_rotation	arm_flex_r	arm_add_r	arm_rot_r	elbow_flex_r	pro_sup_r	wrist_flex_r	wrist_dev_r	arm_flex_l	arm_add_l	arm_rot_l	elbow_flex_l	pro_sup_l	wrist_flex_l	wrist_dev_l
0	0.005874400086224705	-0.001324271762062438	-90.01055677916933	0	0.9399999999999999	0	45.03843685540227	-9.927186015983642	0	59.13381539762961	1.032079777955156	-4.940101430995446	0	0	45.03843685540227	-9.927186015983642	0	59.13381539762961	1.032079777955156	-4.940101430995446	0	0	0.006151987837826	0.00158515534115078	0.003181298830568008	-0.2484324945422675	-0.0596978398081662	-0.0004884362890703393	0.4854403271675647	45.06414538711127	0	0	0	-12.61014425130642	0	75.39583782670879	45.06414538711127	0	0
1	-0.3731819271705953	-0.7569199832687983	-89.47675129965215	0	0.9399999999999999	0	45.03842578577253	-9.92725799058398	0	59.13401406786607	1.032083245404908	-4.940178398589048	0	0	45.03842578577253	-9.92725799058398	0	59.13401406786607	1.032083245404908	-4.940178398589048	0	0	-0.7514884238740437	0.3830033009898069	-0.5255835031706239	-0.2438895099692282	-0.06075379313295026	-0.002191416396225727	0.4959729801726941	45.06409507357962	0	0	0	-12.6105003804359	0	75.39572387511393	45.06409507357962	0	0
2	-0.3616991118268927	-0.7587573835958343	-89.48561355818111	0	0.9399999999999999	0	45.03549003063855	-9.943350316282924	0	59.18668949984724	1.03300260512789	-4.95623875886601	0	0	45.03549003063855	-9.943350316282924	0	59.18668949984724	1.03300260512789	-4.95623875886601	0	0	-0.764214049459654	0.3764470418333604	-0.5200095559005981	-0.2756967371669996	-0.07975448717134856	0.006815375330586198	0.5883639035400786	45.05227668728283	0	0	0	-12.70769282586295	0	75.36550315333881	45.05227668728283	0	0
3	-0.3759206361048111	-0.7529005668269184	-89.47560947104665	0	0.9399999999999999	0	45.03548103237308	-9.943400299153632	0	59.18685189162833	1.033005439399148	-4.956289081368405	0	0	45.03548103237308	-9.943400299153632	0	59.18685189162833	1.033005439399148	-4.956289081368405	0	0	-1.465821092623016	0.7063747513114937	-0.8533454844220564	0.4828817275404795	-0.3714504675036172	0.3316125814691027	0.4915986890390209	45.05224017432523	0	0	0	-12.70799113911458	0	75.36541052496509	45.05224017432523	0	0
4	-0.376312788731968	-0.7557755775611157	-89.48382183375121	0	0.9399999999999999	0	45.03357073784201	-9.951939846624386	0	59.22181913346947	1.033615732899617	-4.964198116051096	0	0	45.03357073784201	-9.951939846624386	0	59.22181913346947	1.033615732899617	-4.964198116051096	0	0	-1.471235316058319	0.7020336242274354	-0.8485889400651508	0.4810479842779902	-0.3638716329238046	0.3372065954835597	0.4956042385097104	45.04561245495298	0	0	0	-12.77416580565986	0	75.34574601902986	45.04561245495298	0	0
5	-0.4063831996497169	-0.769877423844073	-89.44971273037297	0	0.9399999999999999	0	45.03356726769915	-9.951957151959357	0	59.22188245241835	1.033616838023754	-4.964214922843929	0	0	45.03356726769915	-9.951957151959357	0	59.22188245241835	1.033616838023754	-4.964214922843929	0	0	-1.484472698789431	0.7640972249669044	-0.8964483990643318	0.3597740019085461	0.04428381483297371	0.01859230205733942	0.4502796990986392	45.04559945656997	0	-5.38806921148701e-36	0	-12.77428385518254	0	75.34571029740292	45.04559945656997	0	-5.38806921148701e-36
6	-0.3744669029335777	-0.761914364884937	-89.47613966294034	0	0.9399999999999999	0	45.03217898670896	-9.957489132056327	0	59.24759327127029	1.034065576466104	-4.969135611977677	0	0	45.03217898670896	-9.957489132056327	0	59.24759327127029	1.034065576466104	-4.969135611977677	0	0	-1.47996031208554	0.6977150754571412	-0.8485148134986644	0.3691453330837357	0.0822518653745113	-0.005126594546792792	0.4475286124202779	45.04117332372021	0	0	0	-12.82367102318706	0	75.33141941874045	45.04117332372021	0	0
7	-0.3741838633197957	-0.7578431990445084	-89.47724210053599	0	0.9399999999999999	0	45.03087284605764	-9.962270428756291	0	59.27200339226658	1.0344916134483	-4.973273599411391	0	0	45.03087284605764	-9.962270428756291	0	59.27200339226658	1.0344916134483	-4.973273599411391	0	0	-1.474699568033328	0.7007153047715079	-0.8496058565425773	0.3683189707589624	0.07881578868863347	-0.003520645619774083	0.4478731469630814	45.03726451130139	0	0	0	-12.87111273673177	0	75.31797411152111	45.03726451130139	0	0
8	0.004492133442109503	0.0005222612728234274	-89.99861493985937	0	0.9399999999999999	0	45.03086132069621	-9.962319482689669	0	59.27221731586048	1.034495347119361	-4.973318896353933	0	0	45.03086132069621	-9.962319482689669	0	59.27221731586048	1.034495347119361	-4.973318896353933	0	0	-0.724600298237273	0.3090802905251666	-0.3319617888099437	0.3456371930312658	0.3941227202456378	0.4345862648854232	0.5756132456048501	45.03722616453665	0	0	0	-12.87152050186219	0	75.31785547001071	45.03722616453665	0	0
